<svg width="518" height="109" viewBox="0 0 518 109" fill="none" xmlns="http://www.w3.org/2000/svg">
<path d="M50.712 86.12V107H38.184C29.256 107 22.296 104.84 17.304 100.52C12.312 96.104 9.816 88.952 9.816 79.064V47.096H0.0240002V26.648H9.816V7.064H34.44V26.648H50.568V47.096H34.44V79.352C34.44 81.752 35.016 83.48 36.168 84.536C37.32 85.592 39.24 86.12 41.928 86.12H50.712ZM424.302 0.439999V107H399.678V0.439999H424.302Z" fill="#602EEA"/>
<path d="M89.052 40.04C91.932 35.624 95.532 32.168 99.852 29.672C104.172 27.08 108.972 25.784 114.252 25.784V51.848H107.484C101.34 51.848 96.732 53.192 93.66 55.88C90.588 58.472 89.052 63.08 89.052 69.704V107H64.428V26.648H89.052V40.04ZM517.891 65.528C517.891 67.832 517.747 70.232 517.459 72.728H461.731C462.115 77.72 463.699 81.56 466.483 84.248C469.363 86.84 472.867 88.136 476.995 88.136C483.139 88.136 487.411 85.544 489.811 80.36H516.019C514.675 85.64 512.227 90.392 508.675 94.616C505.219 98.84 500.851 102.152 495.571 104.552C490.291 106.952 484.387 108.152 477.859 108.152C469.987 108.152 462.979 106.472 456.835 103.112C450.691 99.752 445.891 94.952 442.435 88.712C438.979 82.472 437.251 75.176 437.251 66.824C437.251 58.472 438.931 51.176 442.291 44.936C445.747 38.696 450.547 33.896 456.691 30.536C462.835 27.176 469.891 25.496 477.859 25.496C485.635 25.496 492.547 27.128 498.595 30.392C504.643 33.656 509.347 38.312 512.707 44.36C516.163 50.408 517.891 57.464 517.891 65.528ZM492.691 59.048C492.691 54.824 491.251 51.464 488.371 48.968C485.491 46.472 481.891 45.224 477.571 45.224C473.443 45.224 469.939 46.424 467.059 48.824C464.275 51.224 462.547 54.632 461.875 59.048H492.691Z" fill="#1BC7EE"/>
<path d="M201.766 65.528C201.766 67.832 201.622 70.232 201.334 72.728H145.606C145.99 77.72 147.574 81.56 150.358 84.248C153.238 86.84 156.742 88.136 160.87 88.136C167.014 88.136 171.286 85.544 173.686 80.36H199.894C198.55 85.64 196.102 90.392 192.55 94.616C189.094 98.84 184.726 102.152 179.446 104.552C174.166 106.952 168.262 108.152 161.734 108.152C153.862 108.152 146.854 106.472 140.71 103.112C134.566 99.752 129.766 94.952 126.31 88.712C122.854 82.472 121.126 75.176 121.126 66.824C121.126 58.472 122.806 51.176 126.166 44.936C129.622 38.696 134.422 33.896 140.566 30.536C146.71 27.176 153.766 25.496 161.734 25.496C169.51 25.496 176.422 27.128 182.47 30.392C188.518 33.656 193.222 38.312 196.582 44.36C200.038 50.408 201.766 57.464 201.766 65.528ZM176.566 59.048C176.566 54.824 175.126 51.464 172.246 48.968C169.366 46.472 165.766 45.224 161.446 45.224C157.318 45.224 153.814 46.424 150.934 48.824C148.15 51.224 146.422 54.632 145.75 59.048H176.566Z" fill="#ED2C7C"/>
<path d="M209.86 66.68C209.86 58.424 211.396 51.176 214.468 44.936C217.636 38.696 221.908 33.896 227.284 30.536C232.66 27.176 238.66 25.496 245.284 25.496C250.948 25.496 255.892 26.648 260.116 28.952C264.436 31.256 267.748 34.28 270.052 38.024V26.648H294.676V107H270.052V95.624C267.652 99.368 264.292 102.392 259.972 104.696C255.748 107 250.804 108.152 245.14 108.152C238.612 108.152 232.66 106.472 227.284 103.112C221.908 99.656 217.636 94.808 214.468 88.568C211.396 82.232 209.86 74.936 209.86 66.68ZM270.052 66.824C270.052 60.68 268.324 55.832 264.868 52.28C261.508 48.728 257.38 46.952 252.484 46.952C247.588 46.952 243.412 48.728 239.956 52.28C236.596 55.736 234.916 60.536 234.916 66.68C234.916 72.824 236.596 77.72 239.956 81.368C243.412 84.92 247.588 86.696 252.484 86.696C257.38 86.696 261.508 84.92 264.868 81.368C268.324 77.816 270.052 72.968 270.052 66.824Z" fill="#00B887"/>
<path d="M307.595 66.824C307.595 58.472 309.275 51.176 312.635 44.936C316.091 38.696 320.843 33.896 326.891 30.536C333.035 27.176 340.043 25.496 347.915 25.496C357.995 25.496 366.395 28.136 373.115 33.416C379.931 38.696 384.395 46.136 386.507 55.736H360.299C358.091 49.592 353.819 46.52 347.483 46.52C342.971 46.52 339.371 48.296 336.683 51.848C333.995 55.304 332.651 60.296 332.651 66.824C332.651 73.352 333.995 78.392 336.683 81.944C339.371 85.4 342.971 87.128 347.483 87.128C353.819 87.128 358.091 84.056 360.299 77.912H386.507C384.395 87.32 379.931 94.712 373.115 100.088C366.299 105.464 357.899 108.152 347.915 108.152C340.043 108.152 333.035 106.472 326.891 103.112C320.843 99.752 316.091 94.952 312.635 88.712C309.275 82.472 307.595 75.176 307.595 66.824Z" fill="#F4B73E"/>
</svg>